<?xml version="1.0" standalone="no"?>
<!DOCTYPE svg PUBLIC "-//W3C//DTD SVG 20010904//EN"
 "http://www.w3.org/TR/2001/REC-SVG-20010904/DTD/svg10.dtd">
<svg version="1.0" xmlns="http://www.w3.org/2000/svg"
 width="240.000000pt" height="240.000000pt" viewBox="0 0 240.000000 240.000000"
 preserveAspectRatio="xMidYMid meet">

<g transform="translate(0.000000,240.000000) scale(0.100000,-0.100000)"
fill="#000000" stroke="none">
<path d="M0 2381 c0 -18 3 -19 25 -11 14 5 32 7 40 4 8 -3 28 -1 45 4 25 9 30
8 30 -5 0 -9 -3 -14 -6 -10 -3 3 -25 -1 -47 -10 -23 -8 -51 -16 -62 -18 -20
-2 -20 -10 -23 -1168 l-2 -1167 1200 0 1200 0 0 1094 0 1093 -72 -20 c-154
-42 -460 -140 -515 -163 -50 -22 -90 -28 -98 -13 -6 8 -4 10 6 4 11 -7 12 -6
2 7 -7 8 -10 18 -6 21 3 4 1 7 -5 7 -7 0 -12 -7 -12 -16 0 -12 -7 -9 -28 12
-15 16 -27 39 -26 51 1 13 -7 28 -22 38 -14 9 -22 21 -18 27 5 7 -1 9 -20 4
-15 -3 -26 -2 -26 3 0 6 -26 11 -57 13 -52 3 -58 5 -55 23 2 14 0 16 -6 7 -9
-14 -56 -26 -47 -13 6 11 -20 22 -29 13 -4 -3 -32 -5 -63 -4 -31 0 -65 -4 -76
-10 -12 -6 -17 -6 -13 0 8 14 -3 42 -17 42 -8 0 -8 -3 0 -11 15 -15 -5 -49
-24 -42 -7 3 -20 0 -28 -7 -12 -10 -15 -9 -15 6 -1 17 -2 17 -19 -4 -12 -14
-21 -18 -23 -10 -3 7 -12 4 -27 -11 l-23 -23 7 24 c7 23 7 23 -12 3 -10 -11
-19 -29 -19 -40 1 -16 -6 -20 -36 -22 -42 -2 -45 3 -23 33 19 25 19 35 0 28
-8 -4 -15 -12 -15 -18 0 -18 -52 -71 -72 -72 -10 -1 -16 3 -15 8 1 6 -4 13
-12 16 -10 3 -11 0 -5 -9 6 -11 5 -12 -7 -3 -8 6 -34 14 -59 18 -83 13 -149
36 -144 51 3 7 1 16 -5 20 -7 4 -8 0 -4 -11 5 -13 3 -15 -7 -9 -9 6 -11 4 -5
-5 6 -10 4 -12 -10 -6 -10 3 -61 9 -114 12 -53 3 -118 8 -146 10 -27 3 -62 6
-77 7 -14 1 -35 11 -45 23 -10 11 -25 19 -33 17 -8 -2 -4 3 10 11 18 11 27 11
32 3 5 -8 8 -6 8 6 0 10 4 16 9 12 5 -3 13 0 17 6 4 8 9 7 15 -2 7 -11 9 -11
9 2 0 11 -8 17 -22 17 -59 0 -90 6 -94 17 -3 7 -17 10 -32 8 -16 -3 -22 -1
-16 4 7 4 13 17 15 28 3 16 12 20 41 20 21 0 43 6 50 14 7 8 8 11 2 8 -6 -4
-20 0 -30 8 -18 13 -17 14 14 15 22 0 32 4 30 13 -3 8 -39 13 -121 15 -111 2
-117 2 -117 -17z m160 -195 c0 -3 -4 -8 -10 -11 -5 -3 -10 -1 -10 4 0 6 5 11
10 11 6 0 10 -2 10 -4z m20 -15 c0 -5 -7 -12 -16 -15 -14 -5 -15 -4 -4 9 14
17 20 19 20 6z m1098 -311 c12 -16 22 -36 22 -44 0 -14 85 -62 101 -58 4 0 15
-8 25 -20 15 -16 16 -22 6 -26 -9 -3 -3 -11 17 -23 17 -10 31 -25 31 -33 0
-14 36 -46 53 -46 4 0 3 10 -4 21 -9 17 -8 20 3 17 7 -3 18 -14 24 -26 6 -12
14 -19 17 -15 4 3 7 -1 7 -11 0 -10 6 -16 17 -14 10 2 22 -7 29 -21 7 -14 20
-26 28 -27 9 -1 14 2 11 6 -9 15 10 18 23 4 7 -8 8 -14 3 -14 -9 0 16 -58 30
-70 13 -11 18 -55 7 -67 -7 -9 -7 -13 1 -13 20 0 11 -112 -18 -230 -28 -110
-113 -314 -147 -354 -23 -26 -45 -82 -36 -91 4 -5 1 -5 -5 -1 -9 5 -13 0 -13
-13 0 -11 -9 -36 -21 -55 -23 -39 -32 -46 -22 -18 3 9 -8 2 -26 -16 -20 -22
-30 -42 -30 -60 3 -45 0 -50 -22 -45 -16 5 -18 8 -7 15 10 8 10 9 -2 5 -8 -2
-16 -13 -18 -24 -3 -21 -32 -41 -32 -23 0 6 4 10 9 10 16 0 2 54 -19 71 -10 9
-16 19 -13 23 4 3 1 6 -5 6 -7 0 -12 -6 -12 -14 0 -8 -7 -17 -16 -20 -8 -3
-13 -2 -9 3 3 5 2 16 -1 25 -5 13 -8 13 -20 1 -8 -7 -14 -18 -14 -24 0 -6 -7
-8 -15 -5 -8 4 -15 1 -15 -6 0 -9 -7 -7 -20 5 -19 17 -20 17 -21 -1 -1 -10 -1
-22 0 -26 0 -5 -4 -8 -9 -8 -6 0 -10 4 -10 9 0 5 -9 7 -20 4 -25 -7 -25 -12
-2 -30 9 -8 11 -12 5 -8 -7 3 -13 1 -13 -6 0 -8 -6 -6 -18 4 -10 10 -25 17
-33 17 -12 0 -11 -2 1 -10 9 -6 10 -10 3 -10 -6 0 -18 6 -25 13 -7 6 -22 13
-33 15 -11 2 -31 11 -45 20 -14 9 -47 17 -75 18 -27 1 -52 3 -55 4 -3 1 -9 2
-13 1 -5 -1 -6 3 -3 8 4 5 -6 24 -21 43 -21 25 -22 28 -5 14 16 -14 26 -16 33
-9 8 8 5 15 -10 25 -14 10 -18 21 -14 36 3 12 9 22 14 22 12 0 12 27 0 35 -5
3 -13 0 -17 -6 -4 -8 -3 -9 4 -5 7 4 12 2 12 -3 0 -27 -28 -7 -40 29 -7 21
-17 37 -21 35 -4 -3 -11 0 -14 6 -4 5 -13 8 -21 5 -11 -4 -12 -1 -5 13 7 12 7
30 1 50 -5 17 -7 40 -5 51 2 12 -2 20 -9 20 -8 0 -20 8 -27 17 -10 11 -10 14
-1 9 15 -9 16 6 2 20 -7 7 -4 10 12 10 23 -1 48 35 51 74 1 11 6 21 13 24 11
4 8 56 -3 56 -13 0 -54 -40 -42 -41 8 0 4 -5 -8 -11 -13 -6 -23 -17 -23 -25 0
-15 -16 -17 -25 -3 -3 6 -2 10 4 10 6 0 8 7 5 15 -4 8 -11 12 -18 8 -6 -3 -3
3 7 14 14 17 16 26 8 41 -6 11 -8 22 -5 24 2 3 0 17 -6 32 -8 21 -6 30 9 45
11 11 17 22 13 25 -10 11 -11 36 -1 36 6 0 7 5 3 11 -7 12 10 52 35 82 9 11
10 17 2 17 -7 0 -10 12 -8 33 7 61 109 185 174 212 44 19 143 29 172 18 13 -5
35 -7 50 -5 23 3 27 8 23 28 -3 18 -13 27 -33 31 -16 3 -32 9 -34 14 -7 10
-93 1 -118 -13 -10 -5 -21 -7 -24 -4 -6 6 58 36 77 36 5 0 10 6 10 13 0 8 3 8
9 -2 6 -9 16 -11 27 -6 18 7 18 8 -1 15 -22 10 -19 10 44 15 25 2 62 -4 83
-12 42 -17 80 -11 60 9 -17 17 -15 41 3 34 10 -3 14 1 13 12 -5 59 16 69 50
22z m102 -30 c0 -5 -2 -10 -4 -10 -3 0 -8 5 -11 10 -3 6 -1 10 4 10 6 0 11 -4
11 -10z m15 -31 c11 -17 -1 -21 -15 -4 -8 9 -8 15 -2 15 6 0 14 -5 17 -11z
m142 -131 c-3 -8 -6 -5 -6 6 -1 11 2 17 5 13 3 -3 4 -12 1 -19z m-967 -301 c0
-29 -28 -69 -42 -61 -6 4 -8 2 -5 -3 4 -6 0 -13 -8 -17 -16 -6 -12 6 25 86 15
31 30 28 30 -5z m6 -92 c-1 -8 -10 -23 -20 -34 -10 -11 -16 -26 -13 -33 4 -9
6 -7 6 4 1 9 5 20 11 23 6 4 7 -2 1 -17 -7 -18 -14 -22 -40 -20 -25 3 -30 0
-25 -12 3 -9 10 -16 14 -16 4 0 10 -11 12 -25 4 -19 -2 -30 -27 -49 -17 -13
-36 -21 -41 -18 -16 12 -16 46 1 58 9 7 22 35 30 62 13 50 37 85 65 94 20 7
29 1 26 -17z m1220 -241 c8 -32 -1 -86 -21 -126 -8 -18 -20 -64 -26 -102 -14
-88 -31 -131 -58 -146 -19 -9 -21 -8 -21 15 0 16 -6 25 -15 25 -8 0 -15 -9
-15 -21 0 -11 5 -17 10 -14 6 3 10 1 10 -4 0 -15 -40 -7 -51 10 -15 24 -10 64
20 173 45 160 81 216 138 216 16 0 25 -8 29 -26z m-876 -534 c0 -5 -5 -10 -11
-10 -5 0 -7 5 -4 10 3 6 8 10 11 10 2 0 4 -4 4 -10z m260 -8 c0 -13 -12 -22
-22 -16 -10 6 -1 24 13 24 5 0 9 -4 9 -8z m-160 -8 c0 -8 -19 -13 -24 -6 -3 5
1 9 9 9 8 0 15 -2 15 -3z m-443 -18 c-4 -10 -1 -13 9 -9 15 6 47 -15 40 -26
-4 -6 19 -19 124 -65 64 -29 155 -58 190 -62 81 -8 212 -12 201 -4 -14 8 5 14
82 25 41 6 46 5 41 -9 -3 -9 -10 -13 -15 -10 -5 3 -9 1 -9 -5 0 -5 6 -11 12
-13 32 -11 -43 -30 -155 -39 -159 -14 -405 1 -508 31 -30 8 -38 16 -41 40 -3
17 0 30 6 30 6 0 5 5 -2 12 -15 15 -16 42 -1 32 6 -3 3 8 -5 25 -15 29 -15 30
1 24 10 -3 15 -3 11 1 -4 5 -1 14 5 22 16 17 20 17 14 0z m773 -33 c-1 -12
-50 -45 -50 -33 0 5 5 10 10 10 6 0 10 7 10 15 0 8 7 15 15 15 8 0 15 -3 15
-7z m-146 -77 c-7 -17 -44 -23 -44 -6 0 6 9 10 20 10 11 0 20 5 20 12 0 6 2 9
5 6 3 -3 3 -13 -1 -22z"/>
<path d="M1058 1773 c6 -2 18 -2 25 0 6 3 1 5 -13 5 -14 0 -19 -2 -12 -5z"/>
<path d="M1432 1583 c2 -9 13 -18 26 -20 13 -1 28 -8 35 -13 7 -6 27 -21 45
-35 19 -13 45 -38 59 -57 22 -29 24 -30 18 -8 -14 47 -68 118 -102 134 -45 22
-86 21 -81 -1z"/>
<path d="M824 1524 c-25 -6 -49 -50 -33 -60 6 -3 21 -3 35 0 13 4 34 1 47 -5
22 -12 22 -12 3 9 -18 21 -18 21 8 28 33 8 43 0 26 -21 -17 -20 -5 -31 43 -39
31 -6 37 -4 37 11 0 11 -3 14 -8 7 -4 -7 -15 -8 -27 -3 -19 8 -19 8 3 15 27 8
29 24 2 31 -11 3 -20 9 -20 12 0 4 -6 8 -12 9 -57 8 -86 9 -104 6z"/>
<path d="M1112 1427 c-16 -7 -22 -17 -19 -29 4 -15 2 -16 -15 -7 -18 9 -18 8
-9 -10 14 -26 37 -18 57 21 18 35 16 39 -14 25z"/>
<path d="M1020 1334 c-17 -20 -30 -38 -28 -40 9 -8 48 10 48 22 0 8 4 14 9 14
12 0 22 28 12 35 -5 3 -23 -11 -41 -31z"/>
<path d="M1391 1328 c-12 -25 -11 -32 0 -39 8 -5 21 -8 29 -8 11 1 11 2 -2 6
-26 7 -30 30 -5 27 12 -1 25 -3 30 -3 4 -1 7 -11 7 -23 0 -18 2 -20 9 -9 5 8
7 21 4 29 -12 29 35 -7 49 -38 13 -30 38 -41 38 -17 0 27 -55 70 -121 96 -22
8 -27 5 -38 -21z"/>
<path d="M980 1223 c1 -20 30 -43 54 -43 31 0 35 24 7 40 -23 12 -61 13 -61 3z"/>
<path d="M925 1190 c-11 -18 20 -44 42 -35 15 6 15 8 3 12 -8 3 -20 12 -27 20
-8 10 -13 11 -18 3z"/>
<path d="M1150 1150 c11 -21 56 -37 68 -25 10 10 -36 45 -59 45 -17 0 -18 -3
-9 -20z"/>
<path d="M893 1133 c-35 -3 -53 -9 -57 -20 -9 -23 -3 -25 40 -15 22 5 51 8 65
8 18 -1 26 3 24 13 -2 18 -5 18 -72 14z"/>
<path d="M820 1034 c-17 -15 -28 -30 -23 -35 16 -14 98 -15 89 0 -4 5 0 12 6
14 10 4 9 8 -2 16 -12 9 -9 11 13 11 16 0 26 4 22 10 -12 20 -73 11 -105 -16z"/>
<path d="M974 1016 c11 -9 29 -16 40 -16 17 1 18 2 6 9 -8 5 -26 12 -40 15
-24 7 -24 6 -6 -8z"/>
<path d="M1180 940 c0 -5 5 -10 11 -10 5 0 8 -4 5 -9 -3 -5 1 -14 9 -21 12
-10 15 -10 15 1 -1 27 -40 65 -40 39z"/>
<path d="M1270 593 c0 -10 4 -14 8 -8 4 6 11 13 16 18 5 4 2 7 -7 7 -10 0 -17
-8 -17 -17z"/>
<path d="M1105 550 c3 -5 14 -10 23 -10 15 0 15 2 2 10 -20 13 -33 13 -25 0z"/>
<path d="M500 2396 c0 -9 50 -12 62 -5 8 6 -1 9 -24 9 -21 0 -38 -2 -38 -4z"/>
<path d="M598 2393 c6 -2 18 -2 25 0 6 3 1 5 -13 5 -14 0 -19 -2 -12 -5z"/>
<path d="M715 2390 c3 -5 8 -10 11 -10 2 0 4 5 4 10 0 6 -5 10 -11 10 -5 0 -7
-4 -4 -10z"/>
<path d="M768 2393 c7 -3 16 -2 19 1 4 3 -2 6 -13 5 -11 0 -14 -3 -6 -6z"/>
<path d="M813 2393 c9 -2 23 -2 30 0 6 3 -1 5 -18 5 -16 0 -22 -2 -12 -5z"/>
<path d="M965 2390 c-3 -6 1 -7 9 -4 18 7 21 14 7 14 -6 0 -13 -4 -16 -10z"/>
<path d="M996 2383 c-9 -22 9 -23 40 -2 l29 19 -32 -2 c-18 -1 -35 -8 -37 -15z"/>
<path d="M2084 2393 c3 -4 26 -8 50 -8 28 -1 55 -10 77 -26 28 -19 128 -61
174 -72 6 -1 11 24 13 56 l3 57 -162 0 c-89 0 -159 -3 -155 -7z"/>
<path d="M2224 2219 c-3 -5 7 -9 22 -9 15 0 24 3 20 7 -11 11 -35 12 -42 2z"/>
<path d="M2107 2203 c6 -16 8 -16 23 1 9 12 8 15 -8 13 -12 0 -18 -6 -15 -14z"/>
</g>
</svg>
